<svg xmlns="http://www.w3.org/2000/svg" viewBox="0 0 32 32" height="18" width="18"><title>interface-essential-message</title><g><rect x="29.715" y="8.38" width="1.52" height="12.19" fill="#000000"></rect><rect x="28.195" y="20.57" width="1.52" height="1.52" fill="#000000"></rect><rect x="28.195" y="6.86" width="1.52" height="1.52" fill="#000000"></rect><rect x="26.665" y="22.09" width="1.53" height="1.53" fill="#000000"></rect><rect x="26.665" y="5.33" width="1.53" height="1.53" fill="#000000"></rect><rect x="25.145" y="23.62" width="1.52" height="1.52" fill="#000000"></rect><rect x="25.145" y="3.81" width="1.52" height="1.52" fill="#000000"></rect><rect x="23.615" y="25.14" width="1.53" height="1.52" fill="#000000"></rect><rect x="22.095" y="12.95" width="3.05" height="3.05" fill="#000000"></rect><rect x="22.095" y="2.28" width="3.05" height="1.53" fill="#000000"></rect><rect x="20.575" y="26.66" width="3.04" height="1.53" fill="#000000"></rect><rect x="17.525" y="28.19" width="3.05" height="1.52" fill="#000000"></rect><polygon points="6.855 29.71 6.855 28.19 5.335 28.19 5.335 29.71 3.815 29.71 3.815 31.24 17.525 31.24 17.525 29.71 6.855 29.71" fill="#000000"></polygon><rect x="14.475" y="12.95" width="3.05" height="3.05" fill="#000000"></rect><rect x="11.425" y="0.76" width="10.67" height="1.52" fill="#000000"></rect><rect x="8.385" y="2.28" width="3.04" height="1.53" fill="#000000"></rect><polygon points="8.385 26.66 9.905 26.66 9.905 25.14 6.855 25.14 6.855 28.19 8.385 28.19 8.385 26.66" fill="#000000"></polygon><rect x="6.855" y="12.95" width="3.05" height="3.05" fill="#000000"></rect><rect x="5.335" y="3.81" width="3.05" height="1.52" fill="#000000"></rect><rect x="5.335" y="23.62" width="1.52" height="1.52" fill="#000000"></rect><rect x="3.815" y="22.09" width="1.52" height="1.53" fill="#000000"></rect><rect x="3.815" y="5.33" width="1.52" height="1.53" fill="#000000"></rect><rect x="2.285" y="20.57" width="1.53" height="1.52" fill="#000000"></rect><rect x="2.285" y="6.86" width="1.53" height="1.52" fill="#000000"></rect><rect x="0.765" y="8.38" width="1.52" height="12.19" fill="#000000"></rect></g></svg>
