<svg xmlns="http://www.w3.org/2000/svg" viewBox="0 0 32 32" height="18" width="18"><title>internet-network-wifi-monitor</title><g><rect x="30.47" y="7.62" width="1.53" height="7.62" fill="#000000"></rect><rect x="28.95" y="4.57" width="1.52" height="3.05" fill="#000000"></rect><rect x="27.43" y="3.05" width="1.52" height="1.52" fill="#000000"></rect><rect x="25.9" y="9.14" width="1.53" height="4.57" fill="#000000"></rect><rect x="24.38" y="1.52" width="3.05" height="1.53" fill="#000000"></rect><polygon points="9.14 27.43 9.14 28.95 10.67 28.95 10.67 27.43 15.24 27.43 15.24 28.95 16.76 28.95 16.76 27.43 24.38 27.43 24.38 25.9 25.9 25.9 25.9 18.28 24.38 18.28 24.38 22.85 1.52 22.85 1.52 9.14 0 9.14 0 25.9 1.52 25.9 1.52 27.43 9.14 27.43" fill="#000000"></polygon><rect x="24.38" y="7.62" width="1.52" height="1.52" fill="#000000"></rect><rect x="22.86" y="6.09" width="1.52" height="1.53" fill="#000000"></rect><rect x="16.76" width="7.62" height="1.52" fill="#000000"></rect><rect x="21.33" y="10.66" width="1.53" height="3.05" fill="#000000"></rect><rect x="18.28" y="4.57" width="4.58" height="1.52" fill="#000000"></rect><rect x="18.28" y="9.14" width="3.05" height="1.52" fill="#000000"></rect><rect x="18.28" y="13.71" width="3.05" height="1.53" fill="#000000"></rect><rect x="16.76" y="10.66" width="1.52" height="3.05" fill="#000000"></rect><polygon points="9.14 30.47 9.14 28.95 7.62 28.95 7.62 32 18.28 32 18.28 28.95 16.76 28.95 16.76 30.47 9.14 30.47" fill="#000000"></polygon><rect x="13.71" y="18.28" width="1.53" height="1.53" fill="#000000"></rect><rect x="12.19" y="15.24" width="1.52" height="1.52" fill="#000000"></rect><rect x="7.62" y="19.81" width="6.09" height="1.52" fill="#000000"></rect><rect x="7.62" y="15.24" width="1.52" height="1.52" fill="#000000"></rect><rect x="6.09" y="18.28" width="1.53" height="1.53" fill="#000000"></rect><rect x="1.52" y="7.62" width="12.19" height="1.52" fill="#000000"></rect></g></svg>
