 <svg xmlns="http://www.w3.org/2000/svg" viewBox="0 0 32 32" height="18" width="18"><title>email-emoji-smile-smart</title><g><rect x="30.48" y="12.19" width="1.52" height="7.62" fill="#000000"></rect><rect x="28.95" y="19.81" width="1.53" height="3.04" fill="#000000"></rect><rect x="27.43" y="22.85" width="1.52" height="3.05" fill="#000000"></rect><rect x="27.43" y="6.09" width="1.52" height="3.05" fill="#000000"></rect><rect x="25.91" y="25.9" width="1.52" height="1.52" fill="#000000"></rect><rect x="25.91" y="4.57" width="1.52" height="1.52" fill="#000000"></rect><rect x="22.86" y="27.42" width="3.05" height="1.53" fill="#000000"></rect><rect x="22.86" y="3.04" width="3.05" height="1.53" fill="#000000"></rect><rect x="19.81" y="28.95" width="3.05" height="1.52" fill="#000000"></rect><rect x="19.81" y="1.52" width="3.05" height="1.52" fill="#000000"></rect><rect x="12.19" y="30.47" width="7.62" height="1.53" fill="#000000"></rect><rect x="13.72" y="22.85" width="6.09" height="1.53" fill="#000000"></rect><rect x="12.19" width="7.62" height="1.52" fill="#000000"></rect><rect x="12.19" y="21.33" width="1.53" height="1.52" fill="#000000"></rect><rect x="9.14" y="28.95" width="3.05" height="1.52" fill="#000000"></rect><rect x="9.14" y="1.52" width="3.05" height="1.52" fill="#000000"></rect><rect x="6.1" y="27.42" width="3.04" height="1.53" fill="#000000"></rect><rect x="6.1" y="3.04" width="3.04" height="1.53" fill="#000000"></rect><rect x="4.57" y="25.9" width="1.53" height="1.52" fill="#000000"></rect><rect x="4.57" y="4.57" width="1.53" height="1.52" fill="#000000"></rect><rect x="3.05" y="22.85" width="1.52" height="3.05" fill="#000000"></rect><polygon points="3.05 15.23 4.57 15.23 4.57 16.76 6.1 16.76 6.1 18.28 12.19 18.28 12.19 16.76 13.72 16.76 13.72 15.23 15.24 15.23 15.24 13.71 18.29 13.71 18.29 15.23 19.81 15.23 19.81 16.76 21.33 16.76 21.33 18.28 27.43 18.28 27.43 16.76 28.95 16.76 28.95 12.19 30.48 12.19 30.48 9.14 28.95 9.14 28.95 10.66 3.05 10.66 3.05 9.14 1.53 9.14 1.53 12.19 3.05 12.19 3.05 15.23" fill="#000000"></polygon><rect x="3.05" y="6.09" width="1.52" height="3.05" fill="#000000"></rect><rect x="1.53" y="19.81" width="1.52" height="3.04" fill="#000000"></rect><rect y="12.19" width="1.53" height="7.62" fill="#000000"></rect></g></svg>
