<svg xmlns="http://www.w3.org/2000/svg" viewBox="0 0 32 32" height="18" width="18"><title>interface-essential-zoom-in</title><g><path d="M23.62,20.57H22.1v1.52H20.57v1.53H17.53v1.52h3.04v1.52H22.1v1.53h1.52v1.52h1.52v1.53h4.58V29.71h1.52V25.14H29.72V23.62H28.19V22.09H26.67V20.57H25.14V17.52H23.62Zm1.52,3.05h1.53v1.52h1.52v1.52h1.53v1.53H28.19V26.66H26.67V25.14H25.14Z" fill="#000000"></path><rect x="25.14" y="9.9" width="1.53" height="7.62" fill="#000000"></rect><rect x="23.62" y="6.85" width="1.52" height="3.05" fill="#000000"></rect><rect x="22.1" y="5.33" width="1.52" height="1.52" fill="#000000"></rect><rect x="20.57" y="3.81" width="1.53" height="1.52" fill="#000000"></rect><polygon points="11.43 20.57 16 20.57 16 16 20.57 16 20.57 11.43 16 11.43 16 6.85 11.43 6.85 11.43 11.43 6.86 11.43 6.86 16 11.43 16 11.43 20.57" fill="#000000"></polygon><rect x="17.53" y="2.28" width="3.04" height="1.53" fill="#000000"></rect><rect x="9.91" y="25.14" width="7.62" height="1.52" fill="#000000"></rect><rect x="9.91" y="0.76" width="7.62" height="1.52" fill="#000000"></rect><rect x="6.86" y="23.62" width="3.05" height="1.52" fill="#000000"></rect><rect x="6.86" y="2.28" width="3.05" height="1.53" fill="#000000"></rect><rect x="5.34" y="22.09" width="1.52" height="1.53" fill="#000000"></rect><rect x="5.34" y="3.81" width="1.52" height="1.52" fill="#000000"></rect><rect x="3.81" y="20.57" width="1.53" height="1.52" fill="#000000"></rect><rect x="3.81" y="5.33" width="1.53" height="1.52" fill="#000000"></rect><rect x="2.29" y="17.52" width="1.52" height="3.05" fill="#000000"></rect><rect x="2.29" y="6.85" width="1.52" height="3.05" fill="#000000"></rect><rect x="0.76" y="9.9" width="1.53" height="7.62" fill="#000000"></rect></g></svg>
